<?xml version="1.0" encoding="utf-8"?>
<!-- Uploaded to: SVG Repo, www.svgrepo.com, Transformed by: SVG Repo Mixer Tools -->
<svg version="1.1" id="Layer_1" xmlns="http://www.w3.org/2000/svg" xmlns:xlink="http://www.w3.org/1999/xlink" viewBox="0 0 512 512" xml:space="preserve" fill="#85BE37">
<g>
  <!-- Trophy base -->
  <path d="M380,420 H132 c-11,0-20,9-20,20 v20 c0,11,9,20,20,20 h248 c11,0,20-9,20-20 v-20 C400,429,391,420,380,420z"/>
  <!-- Trophy stem -->
  <path d="M280,340 h-48 c-11,0-20,9-20,20 v60 h88 v-60 C300,349,291,340,280,340z"/>
  <!-- Trophy cup main body -->
  <path d="M350,100 H162 c-16.5,0-30,13.5-30,30 v100 c0,60,40,110,100,122 v18 h48 v-18 c60-12,100-62,100-122 V130 C380,113.5,366.5,100,350,100z"/>
  <!-- Left handle -->
  <path d="M132,130 h-10 c-22,0-40,18-40,40 v50 c0,22,18,40,40,40 h10 V230 h-10 c-11,0-20-9-20-20 v-50 c0-11,9-20,20-20 h10 V130 z"/>
  <!-- Right handle -->
  <path d="M380,130 h10 c11,0,20,9,20,20 v50 c0,11-9,20-20,20 h-10 v30 h10 c22,0,40-18,40-40 v-50 c0-22-18-40-40-40 h-10 V130 z"/>
</g>
</svg>
