<?xml version="1.0" encoding="utf-8"?>
<!-- Uploaded to: SVG Repo, www.svgrepo.com, Transformed by: SVG Repo Mixer Tools -->
<svg version="1.1" id="_x32_" xmlns="http://www.w3.org/2000/svg" xmlns:xlink="http://www.w3.org/1999/xlink" viewBox="0 0 512 512" xml:space="preserve" fill="#000000">
<g id="SVGRepo_bgCarrier" stroke-width="0"/>
<g id="SVGRepo_tracerCarrier" stroke-linecap="round" stroke-linejoin="round"/>
<g id="SVGRepo_iconCarrier">
  <style type="text/css">
    .st0{fill:#85BE37;}
  </style>
  <g>
    <path class="st0" d="M363.4,1.995c-53.797-8.078-84.828,10.813-107.406,13.5c-22.563-2.688-53.594-21.578-107.391-13.5 C86.931,11.276,46.322,70.323,55.541,169.292c9.547,102.531,68.984,178.078,76.141,272.5c6.938,91.453,53.813,78.25,65.734,45.875 c11.938-32.375,32.328-121.406,58.578-121.406s46.656,89.031,58.578,121.406c11.938,32.375,58.813,45.578,65.75-45.875 c7.156-94.422,66.594-169.969,76.141-272.5C465.666,70.323,425.072,11.276,363.4,1.995z"/>
  </g>
</g>
</svg>
